<svg width="120" height="19" viewBox="0 0 120 19" fill="none" xmlns="http://www.w3.org/2000/svg">
<path d="M0.992 18V1.2H8.624C10.448 1.2 12.056 1.552 13.448 2.256C14.84 2.944 15.928 3.912 16.712 5.16C17.496 6.408 17.888 7.888 17.888 9.6C17.888 11.296 17.496 12.776 16.712 14.04C15.928 15.288 14.84 16.264 13.448 16.968C12.056 17.656 10.448 18 8.624 18H0.992ZM4.88 14.808H8.432C9.552 14.808 10.52 14.6 11.336 14.184C12.168 13.752 12.808 13.144 13.256 12.36C13.72 11.576 13.952 10.656 13.952 9.6C13.952 8.528 13.72 7.608 13.256 6.84C12.808 6.056 12.168 5.456 11.336 5.04C10.52 4.608 9.552 4.392 8.432 4.392H4.88V14.808ZM26.8001 18.192C25.4241 18.192 24.2001 17.904 23.1281 17.328C22.0721 16.752 21.2321 15.968 20.6081 14.976C20.0001 13.968 19.6961 12.824 19.6961 11.544C19.6961 10.248 20.0001 9.104 20.6081 8.112C21.2321 7.104 22.0721 6.32 23.1281 5.76C24.2001 5.184 25.4241 4.896 26.8001 4.896C28.1601 4.896 29.3761 5.184 30.4481 5.76C31.5201 6.32 32.3601 7.096 32.9681 8.088C33.5761 9.08 33.8801 10.232 33.8801 11.544C33.8801 12.824 33.5761 13.968 32.9681 14.976C32.3601 15.968 31.5201 16.752 30.4481 17.328C29.3761 17.904 28.1601 18.192 26.8001 18.192ZM26.8001 15.12C27.4241 15.12 27.9841 14.976 28.4801 14.688C28.9761 14.4 29.3681 13.992 29.6561 13.464C29.9441 12.92 30.0881 12.28 30.0881 11.544C30.0881 10.792 29.9441 10.152 29.6561 9.624C29.3681 9.096 28.9761 8.688 28.4801 8.4C27.9841 8.112 27.4241 7.968 26.8001 7.968C26.1761 7.968 25.6161 8.112 25.1201 8.4C24.6241 8.688 24.2241 9.096 23.9201 9.624C23.6321 10.152 23.4881 10.792 23.4881 11.544C23.4881 12.28 23.6321 12.92 23.9201 13.464C24.2241 13.992 24.6241 14.4 25.1201 14.688C25.6161 14.976 26.1761 15.12 26.8001 15.12ZM42.7227 18.192C41.3307 18.192 40.0907 17.912 39.0027 17.352C37.9147 16.776 37.0587 15.984 36.4347 14.976C35.8267 13.968 35.5227 12.824 35.5227 11.544C35.5227 10.248 35.8267 9.104 36.4347 8.112C37.0587 7.104 37.9147 6.32 39.0027 5.76C40.0907 5.184 41.3307 4.896 42.7227 4.896C44.0827 4.896 45.2667 5.184 46.2747 5.76C47.2827 6.32 48.0267 7.128 48.5067 8.184L45.6027 9.744C45.2667 9.136 44.8427 8.688 44.3307 8.4C43.8347 8.112 43.2907 7.968 42.6987 7.968C42.0587 7.968 41.4827 8.112 40.9707 8.4C40.4587 8.688 40.0507 9.096 39.7467 9.624C39.4587 10.152 39.3147 10.792 39.3147 11.544C39.3147 12.296 39.4587 12.936 39.7467 13.464C40.0507 13.992 40.4587 14.4 40.9707 14.688C41.4827 14.976 42.0587 15.12 42.6987 15.12C43.2907 15.12 43.8347 14.984 44.3307 14.712C44.8427 14.424 45.2667 13.968 45.6027 13.344L48.5067 14.928C48.0267 15.968 47.2827 16.776 46.2747 17.352C45.2667 17.912 44.0827 18.192 42.7227 18.192ZM56.5464 18.288C55.2024 18.288 53.9144 18.112 52.6824 17.76C51.4504 17.392 50.4584 16.92 49.7064 16.344L51.0264 13.416C51.7464 13.928 52.5944 14.352 53.5704 14.688C54.5624 15.008 55.5624 15.168 56.5704 15.168C57.3384 15.168 57.9544 15.096 58.4184 14.952C58.8984 14.792 59.2504 14.576 59.4744 14.304C59.6984 14.032 59.8104 13.72 59.8104 13.368C59.8104 12.92 59.6344 12.568 59.2824 12.312C58.9304 12.04 58.4664 11.824 57.8904 11.664C57.3144 11.488 56.6744 11.328 55.9704 11.184C55.2824 11.024 54.5864 10.832 53.8824 10.608C53.1944 10.384 52.5624 10.096 51.9864 9.744C51.4104 9.392 50.9384 8.928 50.5704 8.352C50.2184 7.776 50.0424 7.04 50.0424 6.144C50.0424 5.184 50.2984 4.312 50.8104 3.528C51.3384 2.728 52.1224 2.096 53.1624 1.632C54.2184 1.152 55.5384 0.912 57.1224 0.912C58.1784 0.912 59.2184 1.04 60.2424 1.296C61.2664 1.536 62.1704 1.904 62.9544 2.4L61.7544 5.352C60.9704 4.904 60.1864 4.576 59.4024 4.368C58.6184 4.144 57.8504 4.032 57.0984 4.032C56.3464 4.032 55.7304 4.12 55.2504 4.296C54.7704 4.472 54.4264 4.704 54.2184 4.992C54.0104 5.264 53.9064 5.584 53.9064 5.952C53.9064 6.384 54.0824 6.736 54.4344 7.008C54.7864 7.264 55.2504 7.472 55.8264 7.632C56.4024 7.792 57.0344 7.952 57.7224 8.112C58.4264 8.272 59.1224 8.456 59.8104 8.664C60.5144 8.872 61.1544 9.152 61.7304 9.504C62.3064 9.856 62.7704 10.32 63.1224 10.896C63.4904 11.472 63.6744 12.2 63.6744 13.08C63.6744 14.024 63.4104 14.888 62.8824 15.672C62.3544 16.456 61.5624 17.088 60.5064 17.568C59.4664 18.048 58.1464 18.288 56.5464 18.288ZM71.6151 18.192C70.5431 18.192 69.5831 17.984 68.7351 17.568C67.9031 17.152 67.2551 16.52 66.7911 15.672C66.3271 14.808 66.0951 13.712 66.0951 12.384V5.088H69.8391V11.832C69.8391 12.904 70.0631 13.696 70.5111 14.208C70.9751 14.704 71.6231 14.952 72.4551 14.952C73.0311 14.952 73.5431 14.832 73.9911 14.592C74.4391 14.336 74.7911 13.952 75.0471 13.44C75.3031 12.912 75.4311 12.256 75.4311 11.472V5.088H79.1751V18H75.6231V14.448L76.2711 15.48C75.8391 16.376 75.1991 17.056 74.3511 17.52C73.5191 17.968 72.6071 18.192 71.6151 18.192ZM82.7436 18V5.088H86.3196V8.736L85.8156 7.68C86.1996 6.768 86.8156 6.08 87.6636 5.616C88.5116 5.136 89.5436 4.896 90.7596 4.896V8.352C90.5996 8.336 90.4556 8.328 90.3276 8.328C90.1996 8.312 90.0636 8.304 89.9196 8.304C88.8956 8.304 88.0636 8.6 87.4236 9.192C86.7996 9.768 86.4876 10.672 86.4876 11.904V18H82.7436ZM99.4001 18.192C97.9281 18.192 96.6321 17.904 95.5121 17.328C94.4081 16.752 93.5521 15.968 92.9441 14.976C92.3361 13.968 92.0321 12.824 92.0321 11.544C92.0321 10.248 92.3281 9.104 92.9201 8.112C93.5281 7.104 94.3521 6.32 95.3921 5.76C96.4321 5.184 97.6081 4.896 98.9201 4.896C100.184 4.896 101.32 5.168 102.328 5.712C103.352 6.24 104.16 7.008 104.752 8.016C105.344 9.008 105.64 10.2 105.64 11.592C105.64 11.736 105.632 11.904 105.616 12.096C105.6 12.272 105.584 12.44 105.568 12.6H95.0801V10.416H103.6L102.16 11.064C102.16 10.392 102.024 9.808 101.752 9.312C101.48 8.816 101.104 8.432 100.624 8.16C100.144 7.872 99.5841 7.728 98.9441 7.728C98.3041 7.728 97.7361 7.872 97.2401 8.16C96.7601 8.432 96.3841 8.824 96.1121 9.336C95.8401 9.832 95.7041 10.424 95.7041 11.112V11.688C95.7041 12.392 95.8561 13.016 96.1601 13.56C96.4801 14.088 96.9201 14.496 97.4801 14.784C98.0561 15.056 98.7281 15.192 99.4961 15.192C100.184 15.192 100.784 15.088 101.296 14.88C101.824 14.672 102.304 14.36 102.736 13.944L104.728 16.104C104.136 16.776 103.392 17.296 102.496 17.664C101.6 18.016 100.568 18.192 99.4001 18.192ZM112.379 15.144V4.056H115.475V15.144H112.379ZM108.227 11.064V8.136H119.651V11.064H108.227Z" fill="#0667EE"/>
</svg>
